<?xml version="1.0" standalone="no"?>
<!DOCTYPE svg PUBLIC "-//W3C//DTD SVG 20010904//EN"
 "http://www.w3.org/TR/2001/REC-SVG-20010904/DTD/svg10.dtd">
<svg version="1.0" xmlns="http://www.w3.org/2000/svg"
 width="280.000000pt" height="280.000000pt" viewBox="0 0 280.000000 280.000000"
 preserveAspectRatio="xMidYMid meet">
<metadata>
Created by potrace 1.11, written by Peter Selinger 2001-2013
</metadata>
<g transform="translate(0.000000,280.000000) scale(0.100000,-0.100000)"
fill="#000000" stroke="none">
<path d="M1160 2780 c-504 -92 -911 -437 -1079 -913 -57 -162 -75 -272 -75
-462 0 -137 5 -190 22 -271 58 -270 151 -462 317 -657 174 -204 378 -303 645
-314 106 -5 139 -2 208 15 179 45 303 136 369 269 33 67 37 85 37 147 0 88
-31 154 -99 214 -121 106 -296 99 -428 -19 -63 -56 -67 -52 -43 36 19 71 51
148 82 196 14 22 24 42 22 43 -2 2 -28 17 -59 34 -31 17 -77 50 -103 73 -56
49 -110 125 -96 134 5 3 10 14 10 23 0 14 -2 13 -13 -3 -13 -16 -14 -15 -15
14 0 17 3 29 8 26 4 -3 13 7 18 22 l10 28 1 -27 c1 -22 5 -26 18 -21 11 4 12
8 5 11 -24 8 -11 29 23 39 25 8 33 8 28 1 -3 -7 -1 -8 5 -4 7 4 12 13 12 19 0
13 68 54 82 50 4 -2 17 6 29 18 14 14 28 19 45 15 15 -4 24 -2 24 5 0 7 9 9
24 5 17 -4 28 -1 34 9 9 17 153 38 162 25 3 -4 56 -7 118 -6 98 1 115 -1 123
-17 7 -12 17 -15 35 -11 14 4 24 2 24 -5 0 -6 9 -11 20 -11 11 0 20 -4 20 -10
0 -12 47 -25 74 -21 10 1 22 -3 26 -9 4 -7 23 -15 41 -19 25 -5 34 -12 33 -27
0 -16 5 -20 23 -16 18 3 23 0 23 -17 0 -12 5 -19 10 -16 6 3 10 1 10 -5 0 -6
4 -9 9 -6 5 3 12 -5 15 -19 4 -14 14 -25 22 -25 11 0 14 -5 10 -16 -4 -12 -2
-15 9 -10 25 9 17 -7 -17 -37 l-33 -27 30 -22 c204 -151 331 -392 367 -696
l12 -105 39 44 c62 68 150 190 190 260 73 132 130 294 128 367 0 18 3 31 8 28
16 -10 36 179 35 324 -5 646 -454 1192 -1103 1341 -130 30 -392 35 -531 9z
m-198 -846 c82 -17 199 -72 253 -119 l40 -34 -65 34 c-93 48 -169 66 -280 66
-201 0 -368 -81 -484 -234 -43 -57 -51 -63 -77 -59 -16 2 -34 13 -40 24 -7 13
-17 18 -31 15 -16 -5 -19 -2 -15 13 3 12 0 17 -8 13 -26 -9 -3 37 42 87 101
112 253 191 408 213 48 7 185 -3 257 -19z m1232 -230 c3 -8 2 -12 -4 -9 -6 3
-10 10 -10 16 0 14 7 11 14 -7z m52 -76 c-5 -38 -4 -41 8 -25 18 23 28 22 59
-11 l28 -29 -46 -28 c-25 -16 -45 -33 -45 -37 0 -4 -3 -8 -8 -8 -10 0 -33 146
-26 165 4 8 13 15 21 15 13 0 14 -8 9 -42z m-158 -298 c-7 -11 -17 -20 -22
-20 -5 0 -1 9 9 20 10 11 20 20 22 20 2 0 -2 -9 -9 -20z m-2021 -302 c-3 -8
-6 -5 -6 6 -1 11 2 17 5 13 3 -3 4 -12 1 -19z"/>
<path d="M2221 1634 c0 -11 3 -14 6 -6 3 7 2 16 -1 19 -3 4 -6 -2 -5 -13z"/>
<path d="M2285 1560 c-3 -6 1 -7 9 -4 18 7 21 14 7 14 -6 0 -13 -4 -16 -10z"/>
<path d="M2245 1550 c3 -5 8 -10 11 -10 2 0 4 5 4 10 0 6 -5 10 -11 10 -5 0
-7 -4 -4 -10z"/>
<path d="M1840 1436 c0 -2 7 -7 16 -10 8 -3 12 -2 9 4 -6 10 -25 14 -25 6z"/>
<path d="M1985 1300 c-3 -5 -1 -10 4 -10 6 0 11 5 11 10 0 6 -2 10 -4 10 -3 0
-8 -4 -11 -10z"/>
</g>
</svg>
